<svg width="129" height="24" viewBox="0 0 129 24" fill="none" xmlns="http://www.w3.org/2000/svg">
<path d="M32.84 18V9.2H29.512V6.8H38.968V9.2H35.56V18H32.84ZM39.6673 18V9.504H42.0993L42.2113 12.272L41.7313 11.744C41.8593 11.2853 42.0673 10.8747 42.3553 10.512C42.6539 10.1493 43.0006 9.86133 43.3953 9.648C43.7899 9.43467 44.2113 9.328 44.6593 9.328C44.8513 9.328 45.0273 9.344 45.1873 9.376C45.3579 9.408 45.5126 9.44533 45.6513 9.488L44.9473 12.32C44.8299 12.2453 44.6699 12.1867 44.4673 12.144C44.2753 12.0907 44.0726 12.064 43.8593 12.064C43.6246 12.064 43.4059 12.1067 43.2033 12.192C43.0006 12.2667 42.8299 12.3787 42.6913 12.528C42.5526 12.6773 42.4406 12.8533 42.3553 13.056C42.2806 13.2587 42.2433 13.488 42.2433 13.744V18H39.6673ZM49.7251 18.144C49.0105 18.144 48.3705 17.9573 47.8051 17.584C47.2505 17.2 46.8078 16.6773 46.4771 16.016C46.1465 15.344 45.9811 14.5867 45.9811 13.744C45.9811 12.88 46.1465 12.1173 46.4771 11.456C46.8078 10.7947 47.2611 10.2773 47.8371 9.904C48.4131 9.52 49.0691 9.328 49.8051 9.328C50.2105 9.328 50.5785 9.38667 50.9091 9.504C51.2505 9.62133 51.5491 9.78667 51.8051 10C52.0611 10.2027 52.2798 10.4427 52.4611 10.72C52.6425 10.9867 52.7758 11.2747 52.8611 11.584L52.3331 11.52V9.504H54.8771V18H52.2851V15.952L52.8611 15.936C52.7758 16.2347 52.6371 16.5173 52.4451 16.784C52.2531 17.0507 52.0185 17.2853 51.7411 17.488C51.4638 17.6907 51.1545 17.8507 50.8131 17.968C50.4718 18.0853 50.1091 18.144 49.7251 18.144ZM50.4291 15.984C50.8238 15.984 51.1651 15.8933 51.4531 15.712C51.7411 15.5307 51.9651 15.2747 52.1251 14.944C52.2851 14.6027 52.3651 14.2027 52.3651 13.744C52.3651 13.2853 52.2851 12.8907 52.1251 12.56C51.9651 12.2187 51.7411 11.9573 51.4531 11.776C51.1651 11.584 50.8238 11.488 50.4291 11.488C50.0451 11.488 49.7091 11.584 49.4211 11.776C49.1438 11.9573 48.9251 12.2187 48.7651 12.56C48.6051 12.8907 48.5251 13.2853 48.5251 13.744C48.5251 14.2027 48.6051 14.6027 48.7651 14.944C48.9251 15.2747 49.1438 15.5307 49.4211 15.712C49.7091 15.8933 50.0451 15.984 50.4291 15.984ZM59.5565 18L56.0045 9.504H58.8365L60.9485 15.856L60.3245 15.92L62.5005 9.504H65.3005L61.5725 18H59.5565ZM70.4496 18.16C69.511 18.16 68.695 17.9733 68.0016 17.6C67.3083 17.216 66.7696 16.6987 66.3856 16.048C66.0016 15.3867 65.8096 14.6347 65.8096 13.792C65.8096 13.1413 65.9163 12.544 66.1296 12C66.343 11.456 66.6416 10.9867 67.0256 10.592C67.4096 10.1867 67.863 9.87733 68.3856 9.664C68.919 9.44 69.5003 9.328 70.1296 9.328C70.727 9.328 71.271 9.43467 71.7616 9.648C72.263 9.86133 72.695 10.16 73.0576 10.544C73.4203 10.928 73.6976 11.3813 73.8896 11.904C74.0816 12.4267 74.167 12.9973 74.1456 13.616L74.1296 14.304H67.3616L66.9936 12.864H72.0496L71.7776 13.168V12.848C71.7563 12.5813 71.671 12.3467 71.5216 12.144C71.383 11.9307 71.1963 11.7653 70.9616 11.648C70.727 11.5307 70.4603 11.472 70.1616 11.472C69.7456 11.472 69.3883 11.5573 69.0896 11.728C68.8016 11.888 68.583 12.128 68.4336 12.448C68.2843 12.7573 68.2096 13.1413 68.2096 13.6C68.2096 14.0693 68.3056 14.48 68.4976 14.832C68.7003 15.1733 68.9883 15.44 69.3616 15.632C69.7456 15.824 70.199 15.92 70.7216 15.92C71.0843 15.92 71.4043 15.8667 71.6816 15.76C71.9696 15.6533 72.279 15.472 72.6096 15.216L73.8096 16.912C73.479 17.2 73.127 17.4347 72.7536 17.616C72.3803 17.7973 71.9963 17.9307 71.6016 18.016C71.2176 18.112 70.8336 18.16 70.4496 18.16ZM75.7926 18V6.16H78.3526V18H75.7926ZM86.465 18V7.36H89.025V18H86.465ZM84.961 11.744V9.504H90.673V11.744H84.961ZM95.1939 18.144C94.4792 18.144 93.8392 17.9573 93.2739 17.584C92.7192 17.2 92.2765 16.6773 91.9459 16.016C91.6152 15.344 91.4499 14.5867 91.4499 13.744C91.4499 12.88 91.6152 12.1173 91.9459 11.456C92.2765 10.7947 92.7299 10.2773 93.3059 9.904C93.8819 9.52 94.5379 9.328 95.2739 9.328C95.6792 9.328 96.0472 9.38667 96.3779 9.504C96.7192 9.62133 97.0179 9.78667 97.2739 10C97.5299 10.2027 97.7485 10.4427 97.9299 10.72C98.1112 10.9867 98.2445 11.2747 98.3299 11.584L97.8019 11.52V9.504H100.346V18H97.7539V15.952L98.3299 15.936C98.2445 16.2347 98.1059 16.5173 97.9139 16.784C97.7219 17.0507 97.4872 17.2853 97.2099 17.488C96.9325 17.6907 96.6232 17.8507 96.2819 17.968C95.9405 18.0853 95.5779 18.144 95.1939 18.144ZM95.8979 15.984C96.2925 15.984 96.6339 15.8933 96.9219 15.712C97.2099 15.5307 97.4339 15.2747 97.5939 14.944C97.7539 14.6027 97.8339 14.2027 97.8339 13.744C97.8339 13.2853 97.7539 12.8907 97.5939 12.56C97.4339 12.2187 97.2099 11.9573 96.9219 11.776C96.6339 11.584 96.2925 11.488 95.8979 11.488C95.5139 11.488 95.1779 11.584 94.8899 11.776C94.6125 11.9573 94.3939 12.2187 94.2339 12.56C94.0739 12.8907 93.9939 13.2853 93.9939 13.744C93.9939 14.2027 94.0739 14.6027 94.2339 14.944C94.3939 15.2747 94.6125 15.5307 94.8899 15.712C95.1779 15.8933 95.5139 15.984 95.8979 15.984ZM102.749 18V9.504H105.309V18H102.749ZM104.029 7.824C103.549 7.824 103.17 7.712 102.893 7.488C102.626 7.25333 102.493 6.92267 102.493 6.496C102.493 6.112 102.631 5.79733 102.909 5.552C103.186 5.30667 103.559 5.184 104.029 5.184C104.509 5.184 104.882 5.30133 105.149 5.536C105.415 5.76 105.549 6.08 105.549 6.496C105.549 6.89067 105.41 7.21067 105.133 7.456C104.866 7.70133 104.498 7.824 104.029 7.824ZM107.73 18V6.16H110.29V18H107.73ZM116.417 18.16C115.532 18.16 114.743 17.968 114.049 17.584C113.367 17.2 112.823 16.6773 112.417 16.016C112.023 15.3547 111.825 14.5973 111.825 13.744C111.825 12.8907 112.023 12.1333 112.417 11.472C112.823 10.8107 113.367 10.288 114.049 9.904C114.743 9.52 115.532 9.328 116.417 9.328C117.303 9.328 118.087 9.52 118.769 9.904C119.463 10.288 120.007 10.8107 120.401 11.472C120.796 12.1333 120.993 12.8907 120.993 13.744C120.993 14.5973 120.796 15.3547 120.401 16.016C120.007 16.6773 119.463 17.2 118.769 17.584C118.087 17.968 117.303 18.16 116.417 18.16ZM116.417 15.952C116.801 15.952 117.143 15.856 117.441 15.664C117.74 15.472 117.975 15.2107 118.145 14.88C118.316 14.5493 118.396 14.1707 118.385 13.744C118.396 13.3173 118.316 12.9387 118.145 12.608C117.975 12.2667 117.74 12 117.441 11.808C117.143 11.616 116.801 11.52 116.417 11.52C116.033 11.52 115.687 11.616 115.377 11.808C115.079 12 114.844 12.2667 114.673 12.608C114.503 12.9387 114.423 13.3173 114.433 13.744C114.423 14.1707 114.503 14.5493 114.673 14.88C114.844 15.2107 115.079 15.472 115.377 15.664C115.687 15.856 116.033 15.952 116.417 15.952ZM122.667 18V9.504H125.099L125.211 12.272L124.731 11.744C124.859 11.2853 125.067 10.8747 125.355 10.512C125.654 10.1493 126.001 9.86133 126.395 9.648C126.79 9.43467 127.211 9.328 127.659 9.328C127.851 9.328 128.027 9.344 128.187 9.376C128.358 9.408 128.513 9.44533 128.651 9.488L127.947 12.32C127.83 12.2453 127.67 12.1867 127.467 12.144C127.275 12.0907 127.073 12.064 126.859 12.064C126.625 12.064 126.406 12.1067 126.203 12.192C126.001 12.2667 125.83 12.3787 125.691 12.528C125.553 12.6773 125.441 12.8533 125.355 13.056C125.281 13.2587 125.243 13.488 125.243 13.744V18H122.667Z" fill="#01B6D3"/>
<path d="M17.9 17.39C17.64 16.59 16.89 16 16 16H15V13C15 12.7348 14.8946 12.4804 14.7071 12.2929C14.5196 12.1054 14.2652 12 14 12H8V10H10C10.2652 10 10.5196 9.89464 10.7071 9.70711C10.8946 9.51957 11 9.26522 11 9V7H13C13.5304 7 14.0391 6.78929 14.4142 6.41421C14.7893 6.03914 15 5.53043 15 5V4.59C16.1965 5.07236 17.2582 5.83747 18.0944 6.81983C18.9306 7.8022 19.5163 8.97255 19.8013 10.2307C20.0864 11.4889 20.0623 12.7974 19.7312 14.0442C19.4001 15.291 18.7717 16.4391 17.9 17.39ZM11 19.93C7.05 19.44 4 16.08 4 12C4 11.38 4.08 10.78 4.21 10.21L9 15V16C9 16.5304 9.21071 17.0391 9.58579 17.4142C9.96086 17.7893 10.4696 18 11 18M12 2C10.6868 2 9.38642 2.25866 8.17317 2.7612C6.95991 3.26375 5.85752 4.00035 4.92893 4.92893C3.05357 6.8043 2 9.34784 2 12C2 14.6522 3.05357 17.1957 4.92893 19.0711C5.85752 19.9997 6.95991 20.7362 8.17317 21.2388C9.38642 21.7413 10.6868 22 12 22C14.6522 22 17.1957 20.9464 19.0711 19.0711C20.9464 17.1957 22 14.6522 22 12C22 10.6868 21.7413 9.38642 21.2388 8.17317C20.7362 6.95991 19.9997 5.85752 19.0711 4.92893C18.1425 4.00035 17.0401 3.26375 15.8268 2.7612C14.6136 2.25866 13.3132 2 12 2Z" fill="#01B6D3"/>
</svg>
